solid OpenSCAD_Model
  facet normal -1 0 0
    outer loop
      vertex 0 0 0
      vertex 0 0 8
      vertex 0 10 0
    endloop
  endfacet
  facet normal -1 0 0
    outer loop
      vertex 0 10 0
      vertex 0 0 8
      vertex 0 10 8
    endloop
  endfacet
  facet normal 0 -1 0
    outer loop
      vertex 5 0 2
      vertex 0 0 0
      vertex 30 0 0
    endloop
  endfacet
  facet normal 0 -1 0
    outer loop
      vertex 5 0 2
      vertex 5 0 8
      vertex 0 0 8
    endloop
  endfacet
  facet normal 0 -1 0
    outer loop
      vertex 30 0 8
      vertex 25 0 8
      vertex 30 0 0
    endloop
  endfacet
  facet normal 0 -1 0
    outer loop
      vertex 25 0 8
      vertex 25 0 2
      vertex 30 0 0
    endloop
  endfacet
  facet normal 0 -1 0
    outer loop
      vertex 0 0 8
      vertex 0 0 0
      vertex 5 0 2
    endloop
  endfacet
  facet normal 0 -1 0
    outer loop
      vertex 25 0 2
      vertex 5 0 2
      vertex 30 0 0
    endloop
  endfacet
  facet normal 0 0 -1
    outer loop
      vertex 2.96352 6.42658 0
      vertex 0 10 0
      vertex 30 0 0
    endloop
  endfacet
  facet normal 0 0 -1
    outer loop
      vertex 26.2865 5.88168 0
      vertex 0 10 0
      vertex 30 10 0
    endloop
  endfacet
  facet normal 0 0 -1
    outer loop
      vertex 0 0 0
      vertex 0 10 0
      vertex 1.28648 5.88168 0
    endloop
  endfacet
  facet normal 0 0 -1
    outer loop
      vertex 0 0 0
      vertex 1.28648 5.88168 0
      vertex 1.28648 4.11832 0
    endloop
  endfacet
  facet normal 0 0 -1
    outer loop
      vertex 0 0 0
      vertex 1.28648 4.11832 0
      vertex 2.96352 3.57341 0
    endloop
  endfacet
  facet normal 0 0 -1
    outer loop
      vertex 0 0 0
      vertex 2.96352 3.57341 0
      vertex 30 0 0
    endloop
  endfacet
  facet normal 0 0 -1
    outer loop
      vertex 2.96352 6.42658 0
      vertex 30 0 0
      vertex 4 5 0
    endloop
  endfacet
  facet normal 0 0 -1
    outer loop
      vertex 1.28648 5.88168 0
      vertex 0 10 0
      vertex 2.96352 6.42658 0
    endloop
  endfacet
  facet normal 0 0 -1
    outer loop
      vertex 27.9635 3.57341 0
      vertex 30 0 0
      vertex 26.2865 4.11832 0
    endloop
  endfacet
  facet normal 0 0 -1
    outer loop
      vertex 26.2865 4.11832 0
      vertex 0 10 0
      vertex 26.2865 5.88168 0
    endloop
  endfacet
  facet normal 0 0 -1
    outer loop
      vertex 27.9635 6.42658 0
      vertex 26.2865 5.88168 0
      vertex 30 10 0
    endloop
  endfacet
  facet normal 0 0 -1
    outer loop
      vertex 30 0 0
      vertex 0 10 0
      vertex 26.2865 4.11832 0
    endloop
  endfacet
  facet normal 0 0 -1
    outer loop
      vertex 27.9635 6.42658 0
      vertex 30 10 0
      vertex 29 5 0
    endloop
  endfacet
  facet normal 0 0 -1
    outer loop
      vertex 30 0 0
      vertex 27.9635 3.57341 0
      vertex 29 5 0
    endloop
  endfacet
  facet normal 0 0 -1
    outer loop
      vertex 30 0 0
      vertex 29 5 0
      vertex 30 10 0
    endloop
  endfacet
  facet normal 0 0 -1
    outer loop
      vertex 4 5 0
      vertex 30 0 0
      vertex 2.96352 3.57341 0
    endloop
  endfacet
  facet normal 0 1 0
    outer loop
      vertex 25 10 2
      vertex 30 10 0
      vertex 5 10 2
    endloop
  endfacet
  facet normal 0 1 0
    outer loop
      vertex 0 10 0
      vertex 0 10 8
      vertex 5 10 2
    endloop
  endfacet
  facet normal 0 1 0
    outer loop
      vertex 0 10 0
      vertex 5 10 2
      vertex 30 10 0
    endloop
  endfacet
  facet normal 0 1 0
    outer loop
      vertex 30 10 0
      vertex 25 10 2
      vertex 25 10 8
    endloop
  endfacet
  facet normal 0 1 0
    outer loop
      vertex 30 10 0
      vertex 25 10 8
      vertex 30 10 8
    endloop
  endfacet
  facet normal 0 1 0
    outer loop
      vertex 5 10 2
      vertex 0 10 8
      vertex 5 10 8
    endloop
  endfacet
  facet normal 0 0 1
    outer loop
      vertex 1.28648 4.11832 8
      vertex 0 0 8
      vertex 5 0 8
    endloop
  endfacet
  facet normal 0 0 1
    outer loop
      vertex 0 10 8
      vertex 0 0 8
      vertex 1.28648 4.11832 8
    endloop
  endfacet
  facet normal 0 0 1
    outer loop
      vertex 0 10 8
      vertex 1.28648 4.11832 8
      vertex 1.28648 5.88168 8
    endloop
  endfacet
  facet normal 0 0 1
    outer loop
      vertex 5 10 8
      vertex 0 10 8
      vertex 2.96352 6.42658 8
    endloop
  endfacet
  facet normal 0 0 1
    outer loop
      vertex 5 10 8
      vertex 4 5 8
      vertex 5 0 8
    endloop
  endfacet
  facet normal 0 0 1
    outer loop
      vertex 5 10 8
      vertex 2.96352 6.42658 8
      vertex 4 5 8
    endloop
  endfacet
  facet normal 0 0 1
    outer loop
      vertex 4 5 8
      vertex 2.96352 3.57341 8
      vertex 5 0 8
    endloop
  endfacet
  facet normal 0 0 1
    outer loop
      vertex 2.96352 3.57341 8
      vertex 1.28648 4.11832 8
      vertex 5 0 8
    endloop
  endfacet
  facet normal 0 0 1
    outer loop
      vertex 1.28648 5.88168 8
      vertex 2.96352 6.42658 8
      vertex 0 10 8
    endloop
  endfacet
  facet normal 1 0 0
    outer loop
      vertex 5 10 2
      vertex 5 10 8
      vertex 5 0 8
    endloop
  endfacet
  facet normal 1 0 0
    outer loop
      vertex 5 0 2
      vertex 5 10 2
      vertex 5 0 8
    endloop
  endfacet
  facet normal 0 0 1
    outer loop
      vertex 19.809 3.45106 2
      vertex 25 10 2
      vertex 5 10 2
    endloop
  endfacet
  facet normal 0 0 1
    outer loop
      vertex 5 0 2
      vertex 9.69098 3.08778 2
      vertex 5 10 2
    endloop
  endfacet
  facet normal 0 0 1
    outer loop
      vertex 9.69098 3.08778 2
      vertex 10.809 3.45106 2
      vertex 5 10 2
    endloop
  endfacet
  facet normal 0 0 1
    outer loop
      vertex 10.809 1.54894 2
      vertex 9.69098 1.91221 2
      vertex 5 0 2
    endloop
  endfacet
  facet normal 0 0 1
    outer loop
      vertex 10.809 1.54894 2
      vertex 25 0 2
      vertex 11.5 2.5 2
    endloop
  endfacet
  facet normal 0 0 1
    outer loop
      vertex 5 0 2
      vertex 25 0 2
      vertex 10.809 1.54894 2
    endloop
  endfacet
  facet normal 0 0 1
    outer loop
      vertex 5 0 2
      vertex 9.69098 1.91221 2
      vertex 9.69098 3.08778 2
    endloop
  endfacet
  facet normal 0 0 1
    outer loop
      vertex 10.809 3.45106 2
      vertex 18.691 3.08778 2
      vertex 5 10 2
    endloop
  endfacet
  facet normal 0 0 1
    outer loop
      vertex 25 0 2
      vertex 25 10 2
      vertex 19.809 3.45106 2
    endloop
  endfacet
  facet normal 0 0 1
    outer loop
      vertex 20.5 2.5 2
      vertex 19.809 1.54894 2
      vertex 25 0 2
    endloop
  endfacet
  facet normal 0 0 1
    outer loop
      vertex 25 0 2
      vertex 19.809 3.45106 2
      vertex 20.5 2.5 2
    endloop
  endfacet
  facet normal 0 0 1
    outer loop
      vertex 10.809 3.45106 2
      vertex 25 0 2
      vertex 19.809 1.54894 2
    endloop
  endfacet
  facet normal 0 0 1
    outer loop
      vertex 10.809 3.45106 2
      vertex 18.691 1.91221 2
      vertex 18.691 3.08778 2
    endloop
  endfacet
  facet normal 0 0 1
    outer loop
      vertex 10.809 3.45106 2
      vertex 19.809 1.54894 2
      vertex 18.691 1.91221 2
    endloop
  endfacet
  facet normal 0 0 1
    outer loop
      vertex 10.809 3.45106 2
      vertex 11.5 2.5 2
      vertex 25 0 2
    endloop
  endfacet
  facet normal 0 0 1
    outer loop
      vertex 18.691 3.08778 2
      vertex 19.809 3.45106 2
      vertex 5 10 2
    endloop
  endfacet
  facet normal -1 0 0
    outer loop
      vertex 25 10 8
      vertex 25 10 2
      vertex 25 0 8
    endloop
  endfacet
  facet normal -1 0 0
    outer loop
      vertex 25 0 8
      vertex 25 10 2
      vertex 25 0 2
    endloop
  endfacet
  facet normal 0 0 1
    outer loop
      vertex 26.2865 4.11832 8
      vertex 25 0 8
      vertex 30 0 8
    endloop
  endfacet
  facet normal 0 0 1
    outer loop
      vertex 25 10 8
      vertex 25 0 8
      vertex 26.2865 4.11832 8
    endloop
  endfacet
  facet normal 0 0 1
    outer loop
      vertex 25 10 8
      vertex 26.2865 4.11832 8
      vertex 26.2865 5.88168 8
    endloop
  endfacet
  facet normal 0 0 1
    outer loop
      vertex 30 10 8
      vertex 25 10 8
      vertex 27.9635 6.42658 8
    endloop
  endfacet
  facet normal 0 0 1
    outer loop
      vertex 30 10 8
      vertex 29 5 8
      vertex 30 0 8
    endloop
  endfacet
  facet normal 0 0 1
    outer loop
      vertex 30 10 8
      vertex 27.9635 6.42658 8
      vertex 29 5 8
    endloop
  endfacet
  facet normal 0 0 1
    outer loop
      vertex 29 5 8
      vertex 27.9635 3.57341 8
      vertex 30 0 8
    endloop
  endfacet
  facet normal 0 0 1
    outer loop
      vertex 27.9635 3.57341 8
      vertex 26.2865 4.11832 8
      vertex 30 0 8
    endloop
  endfacet
  facet normal 0 0 1
    outer loop
      vertex 26.2865 5.88168 8
      vertex 27.9635 6.42658 8
      vertex 25 10 8
    endloop
  endfacet
  facet normal 1 0 0
    outer loop
      vertex 30 0 8
      vertex 30 0 0
      vertex 30 10 0
    endloop
  endfacet
  facet normal 1 0 0
    outer loop
      vertex 30 10 8
      vertex 30 0 8
      vertex 30 10 0
    endloop
  endfacet
  facet normal 1 0 0
    outer loop
      vertex 1.28648 5.88168 0
      vertex 1.28648 5.88168 8
      vertex 1.28648 4.11832 8
    endloop
  endfacet
  facet normal 1 0 0
    outer loop
      vertex 1.28648 4.11832 0
      vertex 1.28648 5.88168 0
      vertex 1.28648 4.11832 8
    endloop
  endfacet
  facet normal 0.309017 -0.951056 0
    outer loop
      vertex 2.96352 6.42658 0
      vertex 2.96352 6.42658 8
      vertex 1.28648 5.88168 8
    endloop
  endfacet
  facet normal 0.309017 -0.951056 0
    outer loop
      vertex 1.28648 5.88168 0
      vertex 2.96352 6.42658 0
      vertex 1.28648 5.88168 8
    endloop
  endfacet
  facet normal -0.809017 -0.587785 0
    outer loop
      vertex 4 5 8
      vertex 2.96352 6.42658 8
      vertex 4 5 0
    endloop
  endfacet
  facet normal -0.809017 -0.587785 0
    outer loop
      vertex 4 5 0
      vertex 2.96352 6.42658 8
      vertex 2.96352 6.42658 0
    endloop
  endfacet
  facet normal -0.809017 0.587785 0
    outer loop
      vertex 4 5 8
      vertex 4 5 0
      vertex 2.96352 3.57341 8
    endloop
  endfacet
  facet normal -0.809017 0.587785 0
    outer loop
      vertex 2.96352 3.57341 8
      vertex 4 5 0
      vertex 2.96352 3.57341 0
    endloop
  endfacet
  facet normal 0.309017 0.951056 0
    outer loop
      vertex 2.96352 3.57341 8
      vertex 2.96352 3.57341 0
      vertex 1.28648 4.11832 8
    endloop
  endfacet
  facet normal 0.309017 0.951056 0
    outer loop
      vertex 1.28648 4.11832 8
      vertex 2.96352 3.57341 0
      vertex 1.28648 4.11832 0
    endloop
  endfacet
  facet normal 1 0 0
    outer loop
      vertex 26.2865 5.88168 0
      vertex 26.2865 5.88168 8
      vertex 26.2865 4.11832 8
    endloop
  endfacet
  facet normal 1 0 0
    outer loop
      vertex 26.2865 4.11832 0
      vertex 26.2865 5.88168 0
      vertex 26.2865 4.11832 8
    endloop
  endfacet
  facet normal 0.309017 -0.951056 0
    outer loop
      vertex 27.9635 6.42658 0
      vertex 27.9635 6.42658 8
      vertex 26.2865 5.88168 8
    endloop
  endfacet
  facet normal 0.309017 -0.951056 0
    outer loop
      vertex 26.2865 5.88168 0
      vertex 27.9635 6.42658 0
      vertex 26.2865 5.88168 8
    endloop
  endfacet
  facet normal -0.809017 -0.587785 0
    outer loop
      vertex 29 5 8
      vertex 27.9635 6.42658 8
      vertex 29 5 0
    endloop
  endfacet
  facet normal -0.809017 -0.587785 0
    outer loop
      vertex 29 5 0
      vertex 27.9635 6.42658 8
      vertex 27.9635 6.42658 0
    endloop
  endfacet
  facet normal -0.809017 0.587785 0
    outer loop
      vertex 29 5 8
      vertex 29 5 0
      vertex 27.9635 3.57341 8
    endloop
  endfacet
  facet normal -0.809017 0.587785 0
    outer loop
      vertex 27.9635 3.57341 8
      vertex 29 5 0
      vertex 27.9635 3.57341 0
    endloop
  endfacet
  facet normal 0.309017 0.951056 0
    outer loop
      vertex 27.9635 3.57341 8
      vertex 27.9635 3.57341 0
      vertex 26.2865 4.11832 8
    endloop
  endfacet
  facet normal 0.309017 0.951056 0
    outer loop
      vertex 26.2865 4.11832 8
      vertex 27.9635 3.57341 0
      vertex 26.2865 4.11832 0
    endloop
  endfacet
  facet normal -0.309018 0.951056 0
    outer loop
      vertex 9.69098 3.08778 2
      vertex 9.69098 3.08778 4
      vertex 10.809 3.45106 2
    endloop
  endfacet
  facet normal -0.309018 0.951056 0
    outer loop
      vertex 10.809 3.45106 2
      vertex 9.69098 3.08778 4
      vertex 10.809 3.45106 4
    endloop
  endfacet
  facet normal -1 0 0
    outer loop
      vertex 9.69098 1.91221 2
      vertex 9.69098 1.91221 4
      vertex 9.69098 3.08778 2
    endloop
  endfacet
  facet normal -1 0 0
    outer loop
      vertex 9.69098 3.08778 2
      vertex 9.69098 1.91221 4
      vertex 9.69098 3.08778 4
    endloop
  endfacet
  facet normal -0.309018 -0.951056 0
    outer loop
      vertex 9.69098 1.91221 4
      vertex 9.69098 1.91221 2
      vertex 10.809 1.54894 2
    endloop
  endfacet
  facet normal -0.309018 -0.951056 0
    outer loop
      vertex 10.809 1.54894 4
      vertex 9.69098 1.91221 4
      vertex 10.809 1.54894 2
    endloop
  endfacet
  facet normal 0.809017 -0.587785 0
    outer loop
      vertex 10.809 1.54894 4
      vertex 10.809 1.54894 2
      vertex 11.5 2.5 2
    endloop
  endfacet
  facet normal 0.809017 -0.587785 0
    outer loop
      vertex 11.5 2.5 4
      vertex 10.809 1.54894 4
      vertex 11.5 2.5 2
    endloop
  endfacet
  facet normal 0.809017 0.587785 0
    outer loop
      vertex 11.5 2.5 2
      vertex 10.809 3.45106 2
      vertex 10.809 3.45106 4
    endloop
  endfacet
  facet normal 0.809017 0.587785 0
    outer loop
      vertex 11.5 2.5 4
      vertex 11.5 2.5 2
      vertex 10.809 3.45106 4
    endloop
  endfacet
  facet normal -0.309018 0.951056 0
    outer loop
      vertex 18.691 3.08778 2
      vertex 18.691 3.08778 4
      vertex 19.809 3.45106 2
    endloop
  endfacet
  facet normal -0.309018 0.951056 0
    outer loop
      vertex 19.809 3.45106 2
      vertex 18.691 3.08778 4
      vertex 19.809 3.45106 4
    endloop
  endfacet
  facet normal -1 0 0
    outer loop
      vertex 18.691 1.91221 2
      vertex 18.691 1.91221 4
      vertex 18.691 3.08778 2
    endloop
  endfacet
  facet normal -1 0 0
    outer loop
      vertex 18.691 3.08778 2
      vertex 18.691 1.91221 4
      vertex 18.691 3.08778 4
    endloop
  endfacet
  facet normal -0.309018 -0.951056 0
    outer loop
      vertex 18.691 1.91221 4
      vertex 18.691 1.91221 2
      vertex 19.809 1.54894 2
    endloop
  endfacet
  facet normal -0.309018 -0.951056 0
    outer loop
      vertex 19.809 1.54894 4
      vertex 18.691 1.91221 4
      vertex 19.809 1.54894 2
    endloop
  endfacet
  facet normal 0.809017 -0.587785 0
    outer loop
      vertex 19.809 1.54894 4
      vertex 19.809 1.54894 2
      vertex 20.5 2.5 2
    endloop
  endfacet
  facet normal 0.809017 -0.587785 0
    outer loop
      vertex 20.5 2.5 4
      vertex 19.809 1.54894 4
      vertex 20.5 2.5 2
    endloop
  endfacet
  facet normal 0.809017 0.587785 0
    outer loop
      vertex 20.5 2.5 2
      vertex 19.809 3.45106 2
      vertex 19.809 3.45106 4
    endloop
  endfacet
  facet normal 0.809017 0.587785 0
    outer loop
      vertex 20.5 2.5 4
      vertex 20.5 2.5 2
      vertex 19.809 3.45106 4
    endloop
  endfacet
  facet normal 0 0 1
    outer loop
      vertex 9.69098 3.08778 4
      vertex 9.69098 1.91221 4
      vertex 10.809 1.54894 4
    endloop
  endfacet
  facet normal 0 0 1
    outer loop
      vertex 10.809 3.45106 4
      vertex 9.69098 3.08778 4
      vertex 11.5 2.5 4
    endloop
  endfacet
  facet normal 0 0 1
    outer loop
      vertex 11.5 2.5 4
      vertex 9.69098 3.08778 4
      vertex 10.809 1.54894 4
    endloop
  endfacet
  facet normal 0 0 1
    outer loop
      vertex 18.691 3.08778 4
      vertex 18.691 1.91221 4
      vertex 19.809 1.54894 4
    endloop
  endfacet
  facet normal 0 0 1
    outer loop
      vertex 19.809 3.45106 4
      vertex 18.691 3.08778 4
      vertex 20.5 2.5 4
    endloop
  endfacet
  facet normal 0 0 1
    outer loop
      vertex 20.5 2.5 4
      vertex 18.691 3.08778 4
      vertex 19.809 1.54894 4
    endloop
  endfacet
endsolid OpenSCAD_Model
